# Blender 3.4.1
# www.blender.org
mtllib gun.mtl
o Cube
v 1.000175 0.030783 -0.603000
v 0.988838 -0.560000 -0.603000
v 1.000175 0.030783 -0.397000
v 0.988838 -0.560000 -0.397000
v 0.885773 0.036302 -0.603000
v 0.876782 -0.560000 -0.603000
v 0.885773 0.036302 -0.397000
v 0.876782 -0.560000 -0.397000
v 1.051618 -0.322961 -0.556060
v 0.984862 -0.308437 -0.453923
v 0.984862 -0.308437 -0.556060
v 1.050088 -0.290412 -0.603000
v 0.869669 -0.261849 -0.397000
v 1.050088 -0.290412 -0.397000
v 0.869669 -0.261849 -0.603000
vn 0.0482 0.9988 -0.0000
vn -0.0000 -0.0000 1.0000
vn -0.9985 0.0539 -0.0000
vn -0.0000 -1.0000 -0.0000
vn 0.9881 0.1536 -0.0000
vn -0.0000 -0.0000 -1.0000
vn 0.9751 -0.2215 -0.0000
vn -0.9997 -0.0239 -0.0000
vt 0.625000 0.500000
vt 0.375000 0.500000
vt 0.625000 0.750000
vt 0.375000 0.750000
vt 0.875000 0.500000
vt 0.625000 0.250000
vt 0.125000 0.500000
vt 0.375000 0.250000
vt 0.875000 0.750000
vt 0.625000 1.000000
vt 0.625000 0.000000
vt 0.125000 0.750000
vt 0.375000 0.000000
vt 0.375000 1.000000
vt 0.500000 0.500000
vt 0.500000 0.000000
vt 0.500000 1.000000
vt 0.500000 0.750000
vt 0.500000 0.250000
s 0
usemtl Material
f 1/1/1 5/5/1 7/9/1 3/3/1
f 14/18/2 3/3/2 7/10/2 13/17/2
f 13/16/3 7/11/3 5/6/3 15/19/3
f 6/7/4 2/2/4 4/4/4 8/12/4
f 12/15/5 1/1/5 3/3/5 14/18/5
f 15/19/6 5/6/6 1/1/6 12/15/6
f 6/8/6 15/19/6 12/15/6 2/2/6
f 2/2/7 12/15/7 14/18/7 4/4/7
f 8/13/8 13/16/8 15/19/8 6/8/8
f 4/4/2 14/18/2 13/17/2 8/14/2
l 9 11
l 11 10
o Cube.001
v 0.930000 -0.180000 -0.400000
v 0.930000 0.021923 -0.400000
v 0.930000 -0.180000 -0.600000
v 0.930000 0.021923 -0.600000
v 1.508031 -0.145463 -0.400000
v 1.508031 -0.033893 -0.400000
v 1.508031 -0.145463 -0.600000
v 1.508031 -0.033893 -0.600000
v 0.930000 -0.180000 -0.480248
v 0.930000 0.041112 -0.480248
v 1.508031 -0.145463 -0.480248
v 1.508031 -0.014704 -0.480248
v 0.930000 0.041112 -0.540124
v 1.508031 -0.145463 -0.540124
v 0.930000 -0.180000 -0.540124
v 1.508031 -0.014704 -0.540124
vn -1.0000 -0.0000 -0.0000
vn -0.0000 -0.0000 -1.0000
vn 1.0000 -0.0000 -0.0000
vn -0.0000 -0.0000 1.0000
vn 0.0596 -0.9982 -0.0000
vn 0.0935 0.9683 0.2315
vn 0.0961 0.9954 -0.0000
vn 0.0916 0.9483 -0.3039
vt 0.375000 1.000000
vt 0.125000 0.750000
vt 0.375000 0.000000
vt 0.625000 1.000000
vt 0.875000 0.750000
vt 0.625000 0.000000
vt 0.375000 0.250000
vt 0.125000 0.500000
vt 0.625000 0.250000
vt 0.875000 0.500000
vt 0.375000 0.750000
vt 0.625000 0.750000
vt 0.375000 0.500000
vt 0.625000 0.500000
vt 0.125000 0.649690
vt 0.375000 0.100310
vt 0.875000 0.649690
vt 0.625000 0.100310
vt 0.375000 0.649690
vt 0.625000 0.649690
vt 0.875000 0.574845
vt 0.625000 0.175155
vt 0.375000 0.574845
vt 0.125000 0.574845
vt 0.375000 0.175155
vt 0.625000 0.574845
s 0
usemtl Material.002
f 30/44/9 28/41/9 19/28/9 18/26/9
f 18/26/10 19/28/10 23/33/10 22/32/10
f 26/38/11 27/39/11 21/31/11 20/30/11
f 20/30/12 21/31/12 17/23/12 16/20/12
f 24/34/13 26/38/13 20/30/13 16/21/13
f 27/39/14 25/36/14 17/24/14 21/31/14
f 31/45/15 28/40/15 25/36/15 27/39/15
f 30/43/13 29/42/13 26/38/13 24/34/13
f 29/42/11 31/45/11 27/39/11 26/38/11
f 16/22/9 17/25/9 25/37/9 24/35/9
f 22/32/11 23/33/11 31/45/11 29/42/11
f 18/27/13 22/32/13 29/42/13 30/43/13
f 23/33/16 19/29/16 28/40/16 31/45/16
f 24/35/9 25/37/9 28/41/9 30/44/9
o Cube.002
v 0.398963 -0.180000 0.931505
v 0.398963 0.021923 0.931505
v 0.598941 -0.180000 0.928511
v 0.598941 0.021923 0.928511
v 0.407616 -0.145463 1.509471
v 0.407616 -0.033893 1.509471
v 0.607593 -0.145463 1.506477
v 0.607593 -0.033893 1.506477
v 0.479202 -0.180000 0.930304
v 0.479202 0.041112 0.930304
v 0.487855 -0.145463 1.508270
v 0.487855 -0.014704 1.508270
v 0.539072 0.041112 0.929407
v 0.547724 -0.145463 1.507374
v 0.539072 -0.180000 0.929407
v 0.547724 -0.014704 1.507374
vn -0.0150 -0.0000 -0.9999
vn 0.9999 -0.0000 -0.0150
vn 0.0150 -0.0000 0.9999
vn -0.9999 -0.0000 0.0150
vn 0.0009 -0.9982 0.0596
vn -0.2301 0.9683 0.0970
vn 0.0014 0.9954 0.0961
vn 0.3052 0.9483 0.0870
vt 0.375000 1.000000
vt 0.125000 0.750000
vt 0.375000 0.000000
vt 0.625000 1.000000
vt 0.875000 0.750000
vt 0.625000 0.000000
vt 0.375000 0.250000
vt 0.125000 0.500000
vt 0.625000 0.250000
vt 0.875000 0.500000
vt 0.375000 0.750000
vt 0.625000 0.750000
vt 0.375000 0.500000
vt 0.625000 0.500000
vt 0.125000 0.649690
vt 0.375000 0.100310
vt 0.875000 0.649690
vt 0.625000 0.100310
vt 0.375000 0.649690
vt 0.625000 0.649690
vt 0.875000 0.574845
vt 0.625000 0.175155
vt 0.375000 0.574845
vt 0.125000 0.574845
vt 0.375000 0.175155
vt 0.625000 0.574845
s 0
usemtl Material.005
f 46/70/17 44/67/17 35/54/17 34/52/17
f 34/52/18 35/54/18 39/59/18 38/58/18
f 42/64/19 43/65/19 37/57/19 36/56/19
f 36/56/20 37/57/20 33/49/20 32/46/20
f 40/60/21 42/64/21 36/56/21 32/47/21
f 43/65/22 41/62/22 33/50/22 37/57/22
f 47/71/23 44/66/23 41/62/23 43/65/23
f 46/69/21 45/68/21 42/64/21 40/60/21
f 45/68/19 47/71/19 43/65/19 42/64/19
f 32/48/17 33/51/17 41/63/17 40/61/17
f 38/58/19 39/59/19 47/71/19 45/68/19
f 34/53/21 38/58/21 45/68/21 46/69/21
f 39/59/24 35/55/24 44/66/24 47/71/24
f 40/61/17 41/63/17 44/67/17 46/70/17
o Cube.003
v 0.602991 0.030783 0.998634
v 0.602821 -0.560000 0.987298
v 0.397014 0.030783 1.001717
v 0.396844 -0.560000 0.990381
v 0.601279 0.036302 0.884244
v 0.601144 -0.560000 0.875254
v 0.395302 0.036302 0.887328
v 0.395167 -0.560000 0.878338
v 0.556826 -0.322961 1.050773
v 0.453702 -0.308437 0.985553
v 0.555827 -0.308437 0.984025
v 0.603738 -0.290412 1.048540
v 0.395061 -0.261849 0.871225
v 0.397761 -0.290412 1.051624
v 0.601038 -0.261849 0.868142
vn 0.0007 0.9988 0.0482
vn -0.9999 -0.0000 0.0150
vn -0.0149 0.0539 -0.9984
vn -0.0000 -1.0000 -0.0000
vn 0.0148 0.1536 0.9880
vn 0.9999 -0.0000 -0.0150
vn 0.0146 -0.2215 0.9750
vn -0.0150 -0.0239 -0.9996
vt 0.625000 0.500000
vt 0.375000 0.500000
vt 0.625000 0.750000
vt 0.375000 0.750000
vt 0.875000 0.500000
vt 0.625000 0.250000
vt 0.125000 0.500000
vt 0.375000 0.250000
vt 0.875000 0.750000
vt 0.625000 1.000000
vt 0.625000 0.000000
vt 0.125000 0.750000
vt 0.375000 0.000000
vt 0.375000 1.000000
vt 0.500000 0.500000
vt 0.500000 0.000000
vt 0.500000 1.000000
vt 0.500000 0.750000
vt 0.500000 0.250000
s 0
usemtl Material.006
f 48/72/25 52/76/25 54/80/25 50/74/25
f 61/89/26 50/74/26 54/81/26 60/88/26
f 60/87/27 54/82/27 52/77/27 62/90/27
f 53/78/28 49/73/28 51/75/28 55/83/28
f 59/86/29 48/72/29 50/74/29 61/89/29
f 62/90/30 52/77/30 48/72/30 59/86/30
f 53/79/30 62/90/30 59/86/30 49/73/30
f 49/73/31 59/86/31 61/89/31 51/75/31
f 55/84/32 60/87/32 62/90/32 53/79/32
f 51/75/26 61/89/26 60/88/26 55/85/26
l 56 58
l 58 57
o Cube.005
v -0.933083 -0.180000 0.397911
v -0.933083 0.021923 0.397911
v -0.926982 -0.180000 0.597818
v -0.926982 0.021923 0.597818
v -1.510845 -0.145463 0.415543
v -1.510845 -0.033893 0.415543
v -1.504745 -0.145463 0.615450
v -1.504745 -0.033893 0.615450
v -0.930635 -0.180000 0.478122
v -0.930635 0.041112 0.478122
v -1.508397 -0.145463 0.495753
v -1.508397 -0.014704 0.495753
v -0.928809 0.041112 0.537970
v -1.506571 -0.145463 0.555602
v -0.928809 -0.180000 0.537970
v -1.506571 -0.014704 0.555602
vn 0.9995 -0.0000 -0.0305
vn 0.0305 -0.0000 0.9995
vn -0.9995 -0.0000 0.0305
vn -0.0305 -0.0000 -0.9995
vn -0.0596 -0.9982 0.0018
vn -0.1005 0.9683 -0.2286
vn -0.0961 0.9954 0.0029
vn -0.0823 0.9483 0.3066
vt 0.375000 1.000000
vt 0.125000 0.750000
vt 0.375000 0.000000
vt 0.625000 1.000000
vt 0.875000 0.750000
vt 0.625000 0.000000
vt 0.375000 0.250000
vt 0.125000 0.500000
vt 0.625000 0.250000
vt 0.875000 0.500000
vt 0.375000 0.750000
vt 0.625000 0.750000
vt 0.375000 0.500000
vt 0.625000 0.500000
vt 0.125000 0.649690
vt 0.375000 0.100310
vt 0.875000 0.649690
vt 0.625000 0.100310
vt 0.375000 0.649690
vt 0.625000 0.649690
vt 0.875000 0.574845
vt 0.625000 0.175155
vt 0.375000 0.574845
vt 0.125000 0.574845
vt 0.375000 0.175155
vt 0.625000 0.574845
s 0
usemtl Material.008
f 77/115/33 75/112/33 66/99/33 65/97/33
f 65/97/34 66/99/34 70/104/34 69/103/34
f 73/109/35 74/110/35 68/102/35 67/101/35
f 67/101/36 68/102/36 64/94/36 63/91/36
f 71/105/37 73/109/37 67/101/37 63/92/37
f 74/110/38 72/107/38 64/95/38 68/102/38
f 78/116/39 75/111/39 72/107/39 74/110/39
f 77/114/37 76/113/37 73/109/37 71/105/37
f 76/113/35 78/116/35 74/110/35 73/109/35
f 63/93/33 64/96/33 72/108/33 71/106/33
f 69/103/35 70/104/35 78/116/35 76/113/35
f 65/98/37 69/103/37 76/113/37 77/114/37
f 70/104/40 66/100/40 75/111/40 78/116/40
f 71/106/33 72/108/33 75/112/33 77/115/33
o Cube.004
v -0.997033 0.030783 0.602957
v -0.985702 -0.560000 0.602612
v -1.003317 0.030783 0.397053
v -0.991985 -0.560000 0.396707
v -0.882684 0.036302 0.599468
v -0.873698 -0.560000 0.599194
v -0.888968 0.036302 0.393564
v -0.879981 -0.560000 0.393289
v -1.049884 -0.322961 0.557608
v -0.986274 -0.308436 0.453483
v -0.983159 -0.308436 0.555572
v -1.046923 -0.290412 0.604480
v -0.872871 -0.261849 0.393072
v -1.053206 -0.290412 0.398576
v -0.866588 -0.261849 0.598977
vn -0.0482 0.9988 0.0015
vn -0.0305 -0.0000 -0.9995
vn 0.9981 0.0539 -0.0305
vn -0.0000 -1.0000 -0.0000
vn -0.9877 0.1536 0.0301
vn 0.0305 -0.0000 0.9995
vn -0.9747 -0.2215 0.0297
vn 0.9993 -0.0239 -0.0305
vt 0.625000 0.500000
vt 0.375000 0.500000
vt 0.625000 0.750000
vt 0.375000 0.750000
vt 0.875000 0.500000
vt 0.625000 0.250000
vt 0.125000 0.500000
vt 0.375000 0.250000
vt 0.875000 0.750000
vt 0.625000 1.000000
vt 0.625000 0.000000
vt 0.125000 0.750000
vt 0.375000 0.000000
vt 0.375000 1.000000
vt 0.500000 0.500000
vt 0.500000 0.000000
vt 0.500000 1.000000
vt 0.500000 0.750000
vt 0.500000 0.250000
s 0
usemtl Material.007
f 79/117/41 83/121/41 85/125/41 81/119/41
f 92/134/42 81/119/42 85/126/42 91/133/42
f 91/132/43 85/127/43 83/122/43 93/135/43
f 84/123/44 80/118/44 82/120/44 86/128/44
f 90/131/45 79/117/45 81/119/45 92/134/45
f 93/135/46 83/122/46 79/117/46 90/131/46
f 84/124/46 93/135/46 90/131/46 80/118/46
f 80/118/47 90/131/47 92/134/47 82/120/47
f 86/129/48 91/132/48 93/135/48 84/124/48
f 82/120/42 92/134/42 91/133/42 86/130/42
l 87 89
l 89 88
o Cube.007
v -0.398145 -0.180000 -0.932728
v -0.398145 0.021923 -0.932728
v -0.598072 -0.180000 -0.927323
v -0.598072 0.021923 -0.927323
v -0.413765 -0.145463 -1.510548
v -0.413765 -0.033893 -1.510548
v -0.613692 -0.145463 -1.505143
v -0.613692 -0.033893 -1.505143
v -0.478363 -0.180000 -0.930559
v -0.478363 0.041112 -0.930559
v -0.493984 -0.145463 -1.508379
v -0.493984 -0.014704 -1.508379
v -0.538218 0.041112 -0.928941
v -0.553838 -0.145463 -1.506761
v -0.538218 -0.180000 -0.928941
v -0.553838 -0.014704 -1.506761
vn 0.0270 -0.0000 0.9996
vn -0.9996 -0.0000 0.0270
vn -0.0270 -0.0000 -0.9996
vn 0.9996 -0.0000 -0.0270
vn -0.0016 -0.9982 -0.0596
vn 0.2289 0.9683 -0.0997
vn -0.0026 0.9954 -0.0961
vn -0.3063 0.9483 -0.0833
vt 0.375000 1.000000
vt 0.125000 0.750000
vt 0.375000 0.000000
vt 0.625000 1.000000
vt 0.875000 0.750000
vt 0.625000 0.000000
vt 0.375000 0.250000
vt 0.125000 0.500000
vt 0.625000 0.250000
vt 0.875000 0.500000
vt 0.375000 0.750000
vt 0.625000 0.750000
vt 0.375000 0.500000
vt 0.625000 0.500000
vt 0.125000 0.649690
vt 0.375000 0.100310
vt 0.875000 0.649690
vt 0.625000 0.100310
vt 0.375000 0.649690
vt 0.625000 0.649690
vt 0.875000 0.574845
vt 0.625000 0.175155
vt 0.375000 0.574845
vt 0.125000 0.574845
vt 0.375000 0.175155
vt 0.625000 0.574845
s 0
usemtl Material.011
f 108/160/49 106/157/49 97/144/49 96/142/49
f 96/142/50 97/144/50 101/149/50 100/148/50
f 104/154/51 105/155/51 99/147/51 98/146/51
f 98/146/52 99/147/52 95/139/52 94/136/52
f 102/150/53 104/154/53 98/146/53 94/137/53
f 105/155/54 103/152/54 95/140/54 99/147/54
f 109/161/55 106/156/55 103/152/55 105/155/55
f 108/159/53 107/158/53 104/154/53 102/150/53
f 107/158/51 109/161/51 105/155/51 104/154/51
f 94/138/49 95/141/49 103/153/49 102/151/49
f 100/148/51 101/149/51 109/161/51 107/158/51
f 96/143/53 100/148/53 107/158/53 108/159/53
f 101/149/56 97/145/56 106/156/56 109/161/56
f 102/151/49 103/153/49 106/157/49 108/160/49
o Cube.006
v -0.602967 0.030783 -0.997392
v -0.602661 -0.560000 -0.986059
v -0.397042 0.030783 -1.002959
v -0.396736 -0.560000 -0.991626
v -0.599876 0.036302 -0.883031
v -0.599633 -0.560000 -0.874044
v -0.393951 0.036302 -0.888598
v -0.393708 -0.560000 -0.879611
v -0.557434 -0.322961 -1.050084
v -0.453531 -0.308437 -0.986113
v -0.555630 -0.308437 -0.983353
v -0.604316 -0.290412 -1.047286
v -0.393516 -0.261849 -0.872500
v -0.398391 -0.290412 -1.052853
v -0.599440 -0.261849 -0.866933
vn -0.0013 0.9988 -0.0482
vn 0.9996 -0.0000 -0.0270
vn 0.0270 0.0539 0.9982
vn -0.0000 -1.0000 -0.0000
vn -0.0267 0.1536 -0.9878
vn -0.9996 -0.0000 0.0270
vn -0.0264 -0.2215 -0.9748
vn 0.0270 -0.0239 0.9994
vt 0.625000 0.500000
vt 0.375000 0.500000
vt 0.625000 0.750000
vt 0.375000 0.750000
vt 0.875000 0.500000
vt 0.625000 0.250000
vt 0.125000 0.500000
vt 0.375000 0.250000
vt 0.875000 0.750000
vt 0.625000 1.000000
vt 0.625000 0.000000
vt 0.125000 0.750000
vt 0.375000 0.000000
vt 0.375000 1.000000
vt 0.500000 0.500000
vt 0.500000 0.000000
vt 0.500000 1.000000
vt 0.500000 0.750000
vt 0.500000 0.250000
s 0
usemtl Material.010
f 110/162/57 114/166/57 116/170/57 112/164/57
f 123/179/58 112/164/58 116/171/58 122/178/58
f 122/177/59 116/172/59 114/167/59 124/180/59
f 115/168/60 111/163/60 113/165/60 117/173/60
f 121/176/61 110/162/61 112/164/61 123/179/61
f 124/180/62 114/167/62 110/162/62 121/176/62
f 115/169/62 124/180/62 121/176/62 111/163/62
f 111/163/63 121/176/63 123/179/63 113/165/63
f 117/174/64 122/177/64 124/180/64 115/169/64
f 113/165/58 123/179/58 122/178/58 117/175/58
l 118 120
l 120 119
